<svg version="1.1" viewBox="0.0 0.0 1280.0 720.0" fill="none" stroke="none" stroke-linecap="square" stroke-miterlimit="10" xmlns:xlink="http://www.w3.org/1999/xlink" xmlns="http://www.w3.org/2000/svg"><clipPath id="p.0"><path d="m0 0l1280.0 0l0 720.0l-1280.0 0l0 -720.0z" clip-rule="nonzero"/></clipPath><g clip-path="url(#p.0)"><path fill="#323437" d="m0 0l1280.0 0l0 720.0l-1280.0 0z" fill-rule="evenodd"/><path fill="#f0f0f0" d="m228.18199 632.72705l337.92126 -584.378l337.92126 584.378z" fill-rule="evenodd"/><path fill="#f0f0f0" d="m824.2905 525.69885l227.52759 0l0 107.055115l-227.52759 0z" fill-rule="evenodd"/><path fill="#323437" d="m228.18199 862.73773l337.92126 -584.3779l337.92126 584.3779z" fill-rule="evenodd"/><path fill="#f0f0f0" d="m413.85538 379.16553l304.50394 0l0 107.055115l-304.50394 0z" fill-rule="evenodd"/><path fill="#000000" fill-opacity="0.0" d="m285.66702 632.7491l642.4252 0l0 111.49609l-642.4252 0z" fill-rule="evenodd"/><path fill="#323437" d="m302.80765 712.5891l0 -50.578125l16.390625 0q9.3125 0 12.140625 0.765625q4.34375 1.140625 7.28125 4.953125q2.9375 3.796875 2.9375 9.84375q0 4.65625 -1.703125 7.828125q-1.6875 3.171875 -4.296875 4.984375q-2.59375 1.8125 -5.28125 2.40625q-3.65625 0.71875 -10.59375 0.71875l-6.65625 0l0 19.078125l-10.21875 0zm10.21875 -42.015625l0 14.34375l5.578125 0q6.046875 0 8.078125 -0.78125q2.03125 -0.796875 3.1875 -2.484375q1.15625 -1.703125 1.15625 -3.9375q0 -2.765625 -1.625 -4.5625q-1.609375 -1.796875 -4.09375 -2.234375q-1.828125 -0.34375 -7.359375 -0.34375l-4.921875 0zm36.939667 42.015625l0 -50.578125l21.5 0q8.109375 0 11.78125 1.359375q3.671875 1.359375 5.875 4.859375q2.21875 3.484375 2.21875 7.96875q0 5.6875 -3.359375 9.40625q-3.34375 3.703125 -10.0 4.65625q3.3125 1.9375 5.46875 4.25q2.15625 2.3125 5.8125 8.21875l6.171875 9.859375l-12.203125 0l-7.390625 -11.0q-3.9375 -5.90625 -5.390625 -7.4375q-1.4375 -1.53125 -3.0625 -2.09375q-1.625 -0.578125 -5.140625 -0.578125l-2.0625 0l0 21.109375l-10.21875 0zm10.21875 -29.1875l7.546875 0q7.359375 0 9.1875 -0.609375q1.828125 -0.625 2.859375 -2.140625q1.03125 -1.53125 1.03125 -3.796875q0 -2.5625 -1.359375 -4.125q-1.359375 -1.578125 -3.84375 -1.984375q-1.25 -0.171875 -7.453125 -0.171875l-7.96875 0l0 12.828125zm38.713165 4.203125q0 -7.71875 2.296875 -12.96875q1.734375 -3.859375 4.71875 -6.921875q2.984375 -3.078125 6.53125 -4.5625q4.734375 -2.0 10.90625 -2.0q11.171875 0 17.875 6.9375q6.71875 6.921875 6.71875 19.28125q0 12.25 -6.65625 19.171875q-6.65625 6.90625 -17.796875 6.90625q-11.28125 0 -17.9375 -6.875q-6.65625 -6.890625 -6.65625 -18.96875zm10.515625 -0.34375q0 8.59375 3.96875 13.03125q3.96875 4.4375 10.078125 4.4375q6.09375 0 10.015625 -4.390625q3.921875 -4.40625 3.921875 -13.21875q0 -8.6875 -3.8125 -12.96875q-3.8125 -4.28125 -10.125 -4.28125q-6.3125 0 -10.1875 4.34375q-3.859375 4.328125 -3.859375 13.046875zm46.474335 -25.25l18.65625 0q6.3125 0 9.625 0.96875q4.453125 1.3125 7.625 4.65625q3.171875 3.34375 4.828125 8.203125q1.65625 4.84375 1.65625 11.9375q0 6.25 -1.546875 10.765625q-1.890625 5.53125 -5.421875 8.9375q-2.65625 2.59375 -7.171875 4.046875q-3.375 1.0625 -9.03125 1.0625l-19.21875 0l0 -50.578125zm10.203125 8.5625l0 33.5l7.625 0q4.28125 0 6.1875 -0.484375q2.484375 -0.625 4.109375 -2.109375q1.640625 -1.484375 2.671875 -4.875q1.046875 -3.40625 1.046875 -9.265625q0 -5.875 -1.046875 -9.0q-1.03125 -3.140625 -2.890625 -4.90625q-1.859375 -1.765625 -4.71875 -2.375q-2.140625 -0.484375 -8.390625 -0.484375l-4.59375 0zm40.79129 -8.5625l10.2031555 0l0 27.390625q0 6.53125 0.375 8.453125q0.65625 3.109375 3.125 5.0q2.46875 1.875 6.75 1.875q4.34375 0 6.546875 -1.78125q2.21875 -1.78125 2.65625 -4.359375q0.453125 -2.59375 0.453125 -8.59375l0 -27.984375l10.218689 0l0 26.5625q0 9.109375 -0.828125 12.875q-0.828125 3.75 -3.0625 6.34375q-2.218689 2.59375 -5.953064 4.125q-3.71875 1.53125 -9.71875 1.53125q-7.25 0 -11.0 -1.671875q-3.734375 -1.671875 -5.9062805 -4.34375q-2.171875 -2.671875 -2.859375 -5.609375q-1.0 -4.34375 -1.0 -12.828125l0 -26.984375zm83.44754 31.984375l9.90625 3.140625q-2.28125 8.28125 -7.578125 12.296875q-5.296875 4.015625 -13.4375 4.015625q-10.078125 0 -16.5625 -6.875q-6.484375 -6.890625 -6.484375 -18.828125q0 -12.625 6.515625 -19.609375q6.53125 -6.984375 17.15625 -6.984375q9.28125 0 15.078125 5.484375q3.453125 3.234375 5.171875 9.3125l-10.109375 2.421875q-0.890625 -3.9375 -3.75 -6.21875q-2.84375 -2.28125 -6.90625 -2.28125q-5.625 0 -9.125 4.046875q-3.5 4.03125 -3.5 13.078125q0 9.578125 3.4375 13.65625q3.453125 4.078125 8.984375 4.078125q4.0625 0 6.984375 -2.59375q2.9375 -2.59375 4.21875 -8.140625zm30.056946 18.59375l0 -42.015625l-15.015625 0l0 -8.5625l40.1875 0l0 8.5625l-14.96875 0l0 42.015625l-10.203125 0zm31.456543 0l0 -50.578125l10.21875 0l0 50.578125l-10.21875 0zm17.880554 -24.984375q0 -7.71875 2.296875 -12.96875q1.734375 -3.859375 4.71875 -6.921875q2.984375 -3.078125 6.53125 -4.5625q4.734375 -2.0 10.90625 -2.0q11.171875 0 17.875 6.9375q6.71875 6.921875 6.71875 19.28125q0 12.25 -6.65625 19.171875q-6.65625 6.90625 -17.796875 6.90625q-11.28125 0 -17.9375 -6.875q-6.65625 -6.890625 -6.65625 -18.96875zm10.515625 -0.34375q0 8.59375 3.96875 13.03125q3.96875 4.4375 10.078125 4.4375q6.09375 0 10.015625 -4.390625q3.921875 -4.40625 3.921875 -13.21875q0 -8.6875 -3.8125 -12.96875q-3.8125 -4.28125 -10.125 -4.28125q-6.3125 0 -10.1875 4.34375q-3.859375 4.328125 -3.859375 13.046875zm46.61493 25.328125l0 -50.578125l9.9375 0l20.6875 33.78125l0 -33.78125l9.5 0l0 50.578125l-10.25 0l-20.390625 -32.984375l0 32.984375l-9.484375 0zm48.32257 -16.453125l9.9375 -0.96875q0.90625 5.0 3.640625 7.34375q2.75 2.34375 7.40625 2.34375q4.9375 0 7.4375 -2.078125q2.5 -2.09375 2.5 -4.890625q0 -1.78125 -1.0625 -3.046875q-1.046875 -1.265625 -3.671875 -2.1875q-1.796875 -0.625 -8.171875 -2.21875q-8.21875 -2.03125 -11.53125 -5.0q-4.65625 -4.171875 -4.65625 -10.171875q0 -3.859375 2.1875 -7.21875q2.203125 -3.375 6.328125 -5.125q4.125 -1.765625 9.953125 -1.765625q9.515625 0 14.328125 4.171875q4.8125 4.171875 5.0625 11.140625l-10.21875 0.453125q-0.65625 -3.90625 -2.8125 -5.609375q-2.15625 -1.703125 -6.46875 -1.703125q-4.453125 0 -6.96875 1.828125q-1.625 1.171875 -1.625 3.140625q0 1.796875 1.515625 3.0625q1.9375 1.625 9.390625 3.390625q7.453125 1.75 11.015625 3.640625q3.578125 1.875 5.59375 5.140625q2.015625 3.25 2.015625 8.046875q0 4.34375 -2.421875 8.140625q-2.40625 3.796875 -6.828125 5.640625q-4.40625 1.84375 -11.0 1.84375q-9.59375 0 -14.734375 -4.421875q-5.140625 -4.4375 -6.140625 -12.921875z" fill-rule="nonzero"/></g></svg>